<svg width="800" height="600" xmlns="http://www.w3.org/2000/svg">

 <g>
  <title>Layer 1</title>
  <path fill-opacity="0" d="m113,155c0,1 -0.06982,2.98878 -1,9c-1.08131,6.9879 -4.14919,16.94762 -9,31c-5.15926,14.94597 -9.69595,29.08748 -13,40c-1.83276,6.05318 -3,10 -2,10c1,0 -0.41213,-3.17488 4,-13c4.58009,-10.19916 12.31982,-21.37692 17,-33c4.25877,-10.57652 4.65959,-22.03627 6,-33c1.59618,-13.05574 3.64215,-26.59738 10,-30c0.88168,-0.47186 3.2607,2.95578 5,14c2.35417,14.9485 2.49979,30.97797 3,48c0.41122,13.99396 0,27 -3,39l-2,10l-2,6l0,2" id="svg_1" stroke="#c900ae" fill="#d30a6b"/>
  <path fill-opacity="0" d="m72,193c1,0 5.02264,-0.638 14,0c7.05328,0.50127 15,1 23,1c9,0 17.00993,-0.39851 25,0c10.0374,0.50063 20,2 29,3l6,1l4,0l1,0" id="svg_2" stroke="#c900ae" fill="#d30a6b"/>
  <path fill-opacity="0" d="m219,162c0,-1 -1.00194,-1.06213 -2,-1c-8.04668,0.50096 -20.6907,4.78529 -39,16c-17.74455,10.86879 -28.10437,24.5145 -33,32c-4.27493,6.53644 -6.75642,12.07217 -6,16c1.01837,5.28799 8.24023,14.11403 21,22c13.31479,8.22899 29.95396,15.58887 46,14c12.58755,-1.2464 25.92348,-10.86415 36,-20c8.9209,-8.0881 15.70129,-13.82108 14,-17c-0.47186,-0.88167 -4.94043,-0.32521 -15,-2c-14.92728,-2.4852 -31,-5 -51,-9l-15,-3l-8,-2l-2,-1" id="svg_4" stroke="#c900ae" fill="#d30a6b"/>
  <path fill-opacity="0" d="m306,168c0,1 -0.13702,3.93343 -3,10c-4.20337,8.90685 -11.39255,18.49072 -22,31c-13.27014,15.64938 -26.45377,28.63597 -36,41c-5.25719,6.80896 -6.61241,7.79474 -5,4c3.6893,-8.68268 12.46924,-16.46838 24,-29c14.36365,-15.61043 29.13736,-31.89088 45,-52c14.12296,-17.9037 26.24023,-34.11403 39,-42c3.80423,-2.35114 4.49622,-1.09221 5,3c1.34402,10.91759 2.52859,23.93462 4,38c1.56412,14.95171 0.97836,30.09744 -1,45c-2.01309,15.16402 -6,28 -8,37l0,3" id="svg_5" stroke="#c900ae" fill="#d30a6b"/>
  <path fill-opacity="0" d="m274,205c1,0 8.99124,0.13112 23,1c18.98981,1.17784 39,2 57,2l13,0l3,0" id="svg_6" stroke="#c900ae" fill="#d30a6b"/>
  <path fill-opacity="0" d="m408,143c0,1 0.17963,4.97668 1,12c1.28143,10.97078 1,25 1,40c0,18 -1,32 -1,41l-1,5l0,3l-1,0" id="svg_7" stroke="#c900ae" fill="#d30a6b"/>
  <path fill-opacity="0" d="m457,253c0,-1 0,-5 0,-12c0,-8 -0.46274,-18.01031 -1,-32c-0.50037,-13.02879 -1,-22 1,-31c2,-9 3,-18 5,-26c2,-8 3.3851,-14.37201 6,-18c0.8269,-1.14726 1,0 2,2c1,2 1.44839,5.80565 3,10c1.43048,3.867 2,9 4,14c2,5 2.75238,11.0883 5,17c2.70651,7.11862 3.56952,11.133 5,15c0.77579,2.09717 2.49347,5.87856 3,9c0.48056,2.96126 1.49347,4.87856 2,8c0.48056,2.96126 1.88135,7.02521 3,12c0.90457,4.02266 3,9 4,10c1,1 0.79892,1.97958 1,1c1.53128,-7.46024 9.14874,-15.92734 13,-24c5.20276,-10.90556 8.73468,-25.04048 11,-39c1.79089,-11.03598 3,-19 4,-27l2,-8l1,-5l1,-2" id="svg_8" stroke="#c900ae" fill="#d30a6b"/>
  <path fill-opacity="0" d="m85,311c-1,0 -1.92034,0.16797 -6,2c-4.91256,2.20605 -13,5 -21,11c-8,6 -15.65561,13.52643 -22,23c-4.48616,6.69882 -7.48188,13.94537 -7,21c0.49613,7.26318 6.73652,14.2738 14,21c6.76458,6.26422 14,12 19,14l1,1l0,-1l0,-1" id="svg_9" stroke="#c900ae" fill="#d30a6b"/>
  <path fill-opacity="0" d="m107,376c0,-1 1,-2 1,-6c0,-4 -0.72399,-7.22272 -4,-11c-2.77979,-3.20511 -5.01258,-3.35443 -10,-3c-7.05328,0.50125 -12.16119,2.7464 -17,6c-4.14924,2.78995 -5,5 -5,8c0,4 2.62531,8.4136 7,12c5.57665,4.57175 13.95847,7.49924 23,8c8.98623,0.49771 14.14773,-1.94342 16,-7c2.17538,-5.93866 2.91901,-11.10699 2,-15c-1.02749,-4.35251 -2,-6 -3,-6c-1,0 -0.39415,3.01947 0,7c0.50245,5.07422 2.08074,9.98453 3,15c1.0966,5.98309 2.49829,11.93796 3,18c0.49488,5.97955 -1.16124,12.79626 -5,16c-3.43349,2.86551 -10.01546,2.4971 -18,2c-8.04668,-0.50098 -13.31001,-1.33749 -16,-3c-2.40601,-1.487 -3,-4 -3,-5c0,-1 1,-2 7,-5l8,-2" id="svg_10" stroke="#c900ae" fill="#d30a6b"/>
  <polyline fill-opacity="0" stroke-linecap="round" id="svg_11" points="137,349 138,348 139,348 " stroke="#c900ae" fill="none"/>
  <path fill-opacity="0" d="m149,373c0,1 0,2 0,3c0,3 -1,6 -1,7c0,3 0,5 0,6l0,1l0,1l0,1" id="svg_12" stroke="#c900ae" fill="#d30a6b"/>
  <path fill-opacity="0" d="m182,367c-1,0 -3,-1 -6,-1c-4,0 -8.02248,0.63345 -11,1c-4.09221,0.50378 -5.29289,1.29291 -6,2c-0.70711,0.70709 -1.1731,1.85272 -2,3c-1.30745,1.814 -1.5405,4.0535 -2,6c-0.51375,2.17624 -1,5 -1,7c0,2 0.5387,4.60645 3,6c3.58792,2.03146 11.02045,2.49487 17,2c6.06204,-0.50171 10.22021,-2.79489 13,-6c3.27602,-3.77728 4,-8 4,-11c0,-3 0,-4 -1,-4c-1,0 -2.29289,-1.70709 -3,-1c-0.70711,0.70709 0,2 0,5c0,4 2,8 4,12c3,6 5.46552,11.83807 7,17c1.45294,4.88763 2.08127,10.34506 0,15c-2.04085,4.56454 -8.94637,7.82184 -18,8c-14.03296,0.27612 -29.93298,-4.23318 -40,-7c-3.97568,-1.09268 -4,-2 -5,-4l0,-2l4,-2" id="svg_13" stroke="#c900ae" fill="#d30a6b"/>
  <path fill-opacity="0" stroke="#c900ae" d="m231,358c0,1 0,2 0,4c0,4 -1.38649,12.3374 -6,20c-4.43713,7.36966 -7.7928,13.35818 -10,13c-1.39595,-0.22653 -1.49345,-1.87857 -2,-5c-0.96109,-5.92252 3,-14 11,-22c7,-7 14.73976,-12.49445 22,-16c4.84946,-2.34152 6.18875,-2.58472 7,-2c2.56537,1.84903 3.49756,7.92578 4,13c0.7883,7.96106 0,14 -1,19c-1,5 -2,6 -3,6l-3,1l-2,0" id="svg_14" fill="#d30a6b"/>
  <path fill-opacity="0" d="m213,374c1,0 4,0 7,0c5,0 8.03746,0.38907 13,1c4.09221,0.50378 8.90779,1.49622 13,2c2.97752,0.36655 4,0 5,0c3,0 7,0 9,-1l1,0" id="svg_15" stroke="#c900ae" fill="#d30a6b"/>
  <path fill-opacity="0" d="m315,352c-1,0 -3.01007,-0.71643 -7,-1c-7.05328,-0.50125 -13,-2 -20,-2c-6,0 -10.20682,-0.18735 -12,2c-2.28589,2.78833 -4.98691,7.75711 -6,14c-1.12128,6.90961 -0.94867,12.15396 0,15c1.58115,4.74341 4.76108,7.41589 8,9c2.84073,1.38934 6.92578,3.49756 12,4c3.98053,0.39417 9,0 17,0c6,0 10,0 12,0l0,-1l0,-1l0,-1" id="svg_16" stroke="#c900ae" fill="#d30a6b"/>
  <path fill-opacity="0" d="m330,322c0,1 -0.12128,7.09039 1,14c0.50653,3.12143 1,5 2,8c1,3 1,8 2,16c1,8 1,17 1,24c0,5 -0.29291,8.70709 -1,8c-0.70709,-0.70709 -0.49756,-3.92578 -1,-9c-0.68976,-6.96594 -0.21014,-13.07843 1,-16c0.85571,-2.06586 0.69254,-3.186 2,-5c0.8269,-1.14728 2.82376,-2.48627 5,-3c1.9465,-0.4595 5,-1 9,-1c1,0 1.2565,0.797 2,2c1.66251,2.69 1.49347,4.87857 2,8c0.48056,2.96127 0,6 0,9c0,3 -1,6 -1,9c0,2 -1,4 -1,6c0,2 0,3 0,2l0,-1" id="svg_17" stroke="#c900ae" fill="#d30a6b"/>
  <path fill-opacity="0" d="m391,355c0,1 0.5112,2.2222 -1,5c-3.05997,5.62463 -9.1629,12.70248 -16,20c-6.3035,6.728 -11.4588,10.69345 -12,12c-0.38269,0.92389 -0.11865,-0.02521 1,-5c1.80911,-8.04532 3.76819,-17.7175 10,-27c5.92514,-8.82568 12,-11 16,-13c2,-1 3.1731,-1.14728 4,0c2.6149,3.62799 5.94373,8.66708 8,16c1.90921,6.80844 1.38907,14.03748 2,19c0.50378,4.09222 1,7 1,9c0,2 -0.14935,3.52573 -1,3c-1.9021,-1.17557 -1.49622,-3.90778 -2,-8c-0.48874,-3.97003 -1,-8 -2,-12c-1,-4 -1,-5 -2,-5c-1,0 -5.0116,-0.37283 -11,0c-8.04669,0.50098 -13.87857,1.49347 -17,2c-0.98709,0.16019 -2,0 -1,0l1,0l3,0l2,0" id="svg_18" stroke="#c900ae" fill="#d30a6b"/>
  <path fill-opacity="0" d="m450,348c0,2 -0.49622,5.90778 -1,10c-0.61093,4.96252 0,10 -1,15c-1,5 -2.69125,11.07181 -4,16c-0.81165,3.05634 -1.77023,2.97324 -2,2c-0.51373,-2.17624 -2.56711,-8.02011 -2,-16c0.50125,-7.05328 4.25195,-13.88049 7,-20c2.20605,-4.91257 5,-10 7,-12c1,-1 1,-2 2,-2c3,0 7.43356,-0.67783 14,4c8.6579,6.16772 16.59219,13.37128 23,20c4.45035,4.60376 5.94553,8.09021 5,13c-1.01837,5.28799 -4.86578,11.40619 -12,16c-7.18359,4.62561 -16.01352,4.43497 -23,4c-8.04669,-0.50098 -14.61105,-0.92807 -17,-3c-1.68924,-1.46509 -3,-4 -4,-5c-1,-1 -1,-2 1,-2l2,0" id="svg_19" stroke="#c900ae" fill="#d30a6b"/>
  <path fill-opacity="0" d="m536,395c-1,0 -4,-1 -11,-1c-5,0 -11.21167,0.71411 -14,3c-3.28101,2.68979 -4.49622,5.90778 -5,10c-0.36655,2.97751 0,5 3,8c3,3 6.87604,6.34314 12,8c3.9231,1.26855 6.87854,2.49347 10,3c1.97418,0.32037 3.69257,-1.186 5,-3c1.65381,-2.29453 3.22418,-4.90283 4,-7c1.43048,-3.867 1.43048,-8.133 0,-12c-0.77582,-2.09717 -1.64752,-5.9725 -6,-7c-0.97327,-0.22977 -2,0 -2,1c0,1 1.57971,6.15686 4,12c2.56714,6.19757 6.23175,11.92767 8,18c1.15277,3.95868 1.47986,8.32367 0,10c-2.38617,2.703 -8,3 -16,3c-8,0 -14.94342,-1.14774 -20,-3c-2.96933,-1.08768 -4.70709,-2.29291 -4,-3c0.70709,-0.70709 10,0 22,0l11,1" id="svg_20" stroke="#c900ae" fill="#d30a6b"/>
  <path fill-opacity="0" d="m552,400c0,1 0.24438,2.01498 0,4c-0.50378,4.09222 -1.67627,9.12631 -3,16c-1.01837,5.28799 -2,8 -2,7c0,-1 1.49872,-6.94672 2,-14c0.42535,-5.98489 1.56952,-9.133 3,-13c0.77582,-2.09717 2.29291,-3.29291 3,-4c0.70709,-0.70709 1.07611,-0.61731 2,-1c1.30658,-0.5412 1.08398,-0.03983 2,2c2.20605,4.91257 3,12 3,17c0,7 -1,13 1,13c1,0 -5,-4 -10,-6l-1,-1" id="svg_21" stroke="#c900ae" fill="#d30a6b"/>
  <path fill-opacity="0" d="m540,413c1,0 3,0 8,-1l4,0l2,0l1,0" id="svg_22" stroke="#c900ae" fill="#d30a6b"/>
  <path fill-opacity="0" d="m580,428c0,-1 -1,-3 -1,-8c0,-6 0.34686,-12.92987 2,-22c1.26788,-6.95648 1.79279,-11.64182 4,-12c1.39594,-0.22653 2.73145,5.0769 4,9c1.65686,5.12396 3,8 3,10c0,1 1,1 1,0c0,-3 1.36078,-9.21512 4,-16c1.62128,-4.16791 2.77026,-3.97324 3,-3c1.02747,4.35251 4,10 5,16c1,6 2,11 2,14l0,3l0,1l0,1" id="svg_23" stroke="#c900ae" fill="#d30a6b"/>
  <path fill-opacity="0" stroke="#c900ae" d="m622,393c0,1.02702 0,4.10809 0,10.27022c0,5.13511 -1.49756,12.24804 -2,17.45938c-0.29559,3.06608 -1,3.68268 -1,5.13511c0,1.45243 2.96381,3.20007 6,4.10809c3.95868,1.18392 8,1.02702 9,1.02702c1,0 1,-1.02702 1,-2.05404l0,-1.02702" id="svg_24" fill="#d30a6b"/>
  <path fill-opacity="0" d="m621,395c1,0 2,0 4,0c2,0 7,-1 13,-1l6,0l4,0l1,0" id="svg_25" stroke="#c900ae" fill="#d30a6b"/>
  <path fill-opacity="0" d="m645,413c-1,0 -2,0 -3,0c-2,0 -5,0 -9,0c-4,0 -7,0 -10,0l-1,0" id="svg_26" stroke="#c900ae" fill="#d30a6b"/>
  <path transform="rotate(-4.79387 674.515 405.564)" fill-opacity="0" d="m665,395c0,1 -0.49347,2.87857 -1,6c-0.8009,4.93542 -1.49829,10.93796 -2,17c-0.41241,4.98297 -1,10 -1,13c0,2 -0.35205,1.14014 -1,-1c-2.3363,-7.71631 -1,-18 -1,-29c0,-10 0.2774,-15.88596 5,-19c4.49573,-2.96448 10,-3 16,-3c3,0 6.54138,1.70267 8,5c1.66803,3.77063 3.15912,7.17163 2,11c-1.04486,3.45084 -5.83807,7.46552 -11,9c-4.88763,1.45294 -10,2 -15,2l-2,0l-1,0" id="svg_27" stroke="#c900ae" fill="#d30a6b"/>
  <path fill-opacity="0" d="m704,383c-1,1 -1.44843,3.80566 -3,8c-1.43048,3.867 -4.28418,8.73114 -9,14c-4.27039,4.77115 -7.9176,7.38687 -9,10c-0.38269,0.92389 -1.47186,1.11832 -1,2c1.70129,3.17892 8.95795,5.13083 15,7c6.9549,2.15158 15.01691,1.90338 21,3c5.0155,0.91925 7.29291,1.29291 8,2c0.70709,0.70709 1,-1 1,-2l0,-1" id="svg_28" stroke="#c900ae" fill="#d30a6b"/>
  <path fill-opacity="0" d="m740,381c0,1 -0.41589,2.76108 -2,6c-1.38934,2.84073 -2,5 -3,8c-1,3 -3,7 -5,13c-2,6 -4,10 -6,14c-2,4 -4,8 -3,8c1,0 0.58478,-5.16824 4,-13c3.5752,-8.19867 8.72961,-14.22885 13,-19c3.77271,-4.21509 8.19031,-7.88153 10,-11c1.12231,-1.93399 2,-3 2,-2c0,4 -0.36078,11.21512 -3,18c-2.43188,6.25189 -6,12 -8,15c-2,3 -3,5 -4,5l-1,0" id="svg_29" stroke="#c900ae" fill="#d30a6b"/>
  <path fill-opacity="0" d="m760,405c-1,0 -2,0 -6,0c-7,0 -14,0 -20,0l-3,0l-2,0l-1,1" id="svg_30" stroke="#c900ae" fill="#d30a6b"/>
  <path fill-opacity="0" d="m772,386c0,1 0,2 0,5c0,4 0,7 0,9l0,1" id="svg_31" stroke="#c900ae" fill="#d30a6b"/>
  <path d="m786,391c-1,0 -0.71411,1.21167 -3,4c-3.58636,4.37469 -8,9 -12,13c-4,4 -7.7464,8.16119 -11,13c-2.78992,4.14923 -6,8 -8,11c-2,3 -4,5 -4,6l-1,1l0,1" id="svg_35" fill-opacity="0" stroke="#c900ae" fill="none"/>
  <path d="m775,372c1,2 2.48682,4.62146 6,7c6.3064,4.26962 13.42334,5.42825 19,10c4.37469,3.5864 7.19696,7.97049 8,14c1.32678,9.96191 1.89374,21.02185 4,31c1.90417,9.02075 3.90192,13.87805 4,18c0.12128,5.09756 -4.58191,10.71243 -11,14c-7.60443,3.89523 -17.01935,3.37863 -27,4c-8.04669,0.50098 -12.87854,1.49347 -16,2c-0.98706,0.16019 -2,0 -4,0c-3,0 -5,0 -6,0c-1,0 -4,0 -9,-1l-2,0l-1,0" id="svg_36" fill-opacity="0" stroke="#c900ae" fill="none"/>
 </g>
</svg>